<svg width="40" height="40" viewBox="0 0 40 40" fill="none" xmlns="http://www.w3.org/2000/svg">
<path d="M0 10C0 4.47715 4.47715 0 10 0H30C35.5228 0 40 4.47715 40 10V30C40 35.5228 35.5228 40 30 40H10C4.47715 40 0 35.5228 0 30V10Z" fill="white"/>
<path d="M20.125 22.2188V24H11.1484V12.9922H19.8047V14.7734H13.4531V17.5391H19.3281V19.3203H13.4531V22.2188H20.125ZM26.3047 19.5547V22.7422H24.5391V19.5547H21.4219V17.8047H24.5391V14.6172H26.3047V17.8047H29.4453V19.5547H26.3047Z" fill="#155DFC"/>
</svg>
